<svg width="1860" height="1377" viewBox="0 0 1860 1377" fill="none" xmlns="http://www.w3.org/2000/svg">
<g opacity="0.25" clip-path="url(#clip0_98_614)">
<path d="M719.985 214.881C712.125 206.569 704.242 198.249 696.339 189.922C699.046 187.6 701.753 185.281 704.458 182.966C721.108 183.694 737.675 184.391 754.158 185.056C750.974 187.859 747.782 190.662 744.581 193.467C734.842 192.615 725.075 191.757 715.282 190.893C714.053 190.805 712.815 190.718 711.568 190.632C712.229 191.224 712.882 191.818 713.526 192.412C718.921 197.1 724.304 201.783 729.677 206.463C726.451 209.266 723.22 212.072 719.985 214.881Z" fill="#1F1F1F"/>
<path d="M829.664 267.234C826.112 265.924 822.564 264.615 819.02 263.308C844.875 249.523 870.652 235.714 896.351 221.879C899.881 223.181 903.407 224.481 906.929 225.78C881.252 239.623 855.497 253.441 829.664 267.234Z" fill="#1F1F1F"/>
<path d="M893.281 278.827C896.392 275.998 899.507 273.166 902.628 270.332C912.66 271.201 922.692 272.07 932.724 272.938C933.793 273.034 934.854 273.13 935.905 273.227C935.323 272.713 934.735 272.202 934.142 271.693C928.485 266.817 922.832 261.943 917.182 257.07C920.28 254.252 923.376 251.43 926.469 248.602C934.525 256.969 942.588 265.339 950.658 273.711C948.059 276.099 945.451 278.487 942.835 280.876C926.333 280.195 909.815 279.512 893.281 278.827Z" fill="#1F1F1F"/>
<path d="M1071.17 344.394C1063.2 336.039 1055.24 327.691 1047.3 319.35C1049.85 316.971 1052.4 314.595 1054.94 312.221C1071.17 312.792 1087.39 313.362 1103.61 313.931C1100.57 316.785 1097.52 319.642 1094.48 322.503C1084.9 321.71 1075.31 320.92 1065.73 320.132C1064.52 320.052 1063.31 319.974 1062.09 319.899C1062.75 320.491 1063.41 321.087 1064.07 321.687C1069.48 326.383 1074.91 331.081 1080.34 335.782C1077.29 338.65 1074.23 341.521 1071.17 344.394Z" fill="#808080"/>
<path d="M1181.81 397.099C1178.2 395.767 1174.59 394.436 1170.98 393.105C1195.83 378.95 1220.64 364.784 1245.4 350.604C1248.94 351.909 1252.48 353.215 1256.02 354.522C1231.35 368.733 1206.61 382.926 1181.81 397.099Z" fill="#808080"/>
<path d="M1246.55 409.109C1249.47 406.207 1252.38 403.299 1255.29 400.387C1265.63 401.372 1276.02 402.371 1286.45 403.386C1287.55 403.494 1288.66 403.61 1289.78 403.731C1289.12 403.188 1288.46 402.649 1287.8 402.116C1281.45 396.984 1275.12 391.863 1268.83 386.753C1271.7 383.849 1274.56 380.942 1277.43 378.031C1286.65 386.826 1295.89 395.633 1305.17 404.45C1302.69 406.883 1300.21 409.318 1297.73 411.756C1280.58 410.838 1263.52 409.955 1246.55 409.109Z" fill="#808080"/>
<path d="M1438.17 479.737C1429.18 471.01 1420.19 462.281 1411.19 453.549C1413.74 451.17 1416.29 448.794 1418.84 446.42C1436.21 447.414 1453.61 448.416 1471.02 449.424C1467.93 452.264 1464.85 455.108 1461.77 457.955C1451.47 456.898 1441.18 455.846 1430.89 454.8C1429.59 454.684 1428.28 454.573 1426.98 454.465C1427.73 455.09 1428.47 455.718 1429.21 456.347C1435.3 461.291 1441.38 466.231 1447.46 471.17C1444.36 474.022 1441.27 476.877 1438.17 479.737Z" fill="#4EC9B0"/>
<path d="M1557.85 535.766C1554 534.346 1550.15 532.925 1546.3 531.505C1572.85 517.979 1599.39 504.454 1625.91 490.932C1629.79 492.36 1633.66 493.79 1637.54 495.221C1611.01 508.738 1584.44 522.253 1557.85 535.766Z" fill="#4EC9B0"/>
<path d="M1626.28 549.134C1629.46 546.329 1632.63 543.52 1635.81 540.708C1646.63 541.865 1657.44 543.021 1668.24 544.175C1669.4 544.303 1670.55 544.431 1671.69 544.561C1671.02 544.018 1670.36 543.479 1669.71 542.946C1663.36 537.817 1657.01 532.685 1650.65 527.551C1653.79 524.75 1656.94 521.946 1660.09 519.14C1669.26 527.917 1678.42 536.69 1687.57 545.462C1684.89 547.819 1682.21 550.179 1679.52 552.541C1661.76 551.399 1644.02 550.264 1626.28 549.134Z" fill="#4EC9B0"/>
<path d="M1818.98 620.163C1810.53 611.633 1802 603.075 1793.39 594.488C1796.12 592.171 1798.84 589.858 1801.56 587.549C1819.16 588.627 1836.75 589.702 1854.34 590.775C1851.04 593.537 1847.74 596.3 1844.43 599.064C1834.07 597.983 1823.7 596.903 1813.32 595.824C1812.01 595.706 1810.7 595.592 1809.39 595.481C1810.11 596.095 1810.83 596.712 1811.54 597.331C1817.39 602.188 1823.22 607.034 1829.01 611.87C1825.68 614.633 1822.33 617.397 1818.98 620.163Z" fill="#9CDCFE"/>
<path d="M589.34 298.29C585.679 296.94 582.021 295.591 578.367 294.243C605.075 280.781 631.751 267.303 658.395 253.809C662.02 255.145 665.644 256.482 669.269 257.819C642.654 271.324 616.011 284.814 589.34 298.29Z" fill="#9CDCFE"/>
<path d="M654.707 310.541C657.928 307.752 661.153 304.961 664.383 302.167C674.678 303.133 684.963 304.095 695.236 305.052C696.327 305.156 697.416 305.263 698.504 305.374C697.907 304.855 697.309 304.339 696.709 303.827C690.957 298.917 685.208 294.007 679.464 289.099C682.674 286.315 685.879 283.533 689.079 280.753C697.252 289.163 705.421 297.572 713.586 305.979C710.899 308.334 708.209 310.688 705.515 313.04C688.601 312.215 671.665 311.382 654.707 310.541Z" fill="#9CDCFE"/>
<path d="M838.486 378.279C830.48 369.913 822.484 361.552 814.5 353.195C817.12 350.84 819.744 348.487 822.371 346.135C838.861 346.804 855.335 347.47 871.793 348.135C868.675 350.962 865.553 353.791 862.425 356.623C852.7 355.776 842.966 354.93 833.224 354.085C832.002 354 830.777 353.913 829.547 353.825C830.206 354.425 830.865 355.025 831.524 355.625C836.984 360.336 842.444 365.048 847.904 369.76C844.766 372.596 841.627 375.436 838.486 378.279Z" fill="#FFD602"/>
<path d="M952.521 432.226C948.918 430.897 945.316 429.569 941.713 428.24C967.28 414.357 992.79 400.449 1018.24 386.516C1021.82 387.836 1025.41 389.157 1028.99 390.478C1003.55 404.416 978.059 418.332 952.521 432.226Z" fill="#FFD602"/>
<path d="M1016.88 444.105C1019.92 441.252 1022.97 438.396 1026.03 435.537C1036.19 436.452 1046.34 437.365 1056.49 438.277C1057.56 438.375 1058.64 438.478 1059.72 438.586C1059.1 438.059 1058.49 437.538 1057.88 437.024C1051.99 432.062 1046.12 427.105 1040.25 422.154C1043.28 419.302 1046.3 416.453 1049.32 413.606C1057.74 422.105 1066.17 430.612 1074.63 439.127C1072.09 441.536 1069.54 443.943 1067 446.349C1050.29 445.603 1033.59 444.855 1016.88 444.105Z" fill="#FFD602"/>
<path d="M1203.69 512.963C1195.11 504.384 1186.54 495.811 1177.99 487.244C1180.5 484.849 1183.01 482.454 1185.52 480.059C1202.29 480.833 1219.1 481.622 1235.94 482.427C1232.93 485.294 1229.91 488.162 1226.89 491.032C1216.91 490.093 1206.95 489.164 1197.01 488.244C1195.76 488.15 1194.51 488.054 1193.25 487.955C1193.96 488.574 1194.67 489.19 1195.36 489.803C1201.18 494.647 1207.01 499.494 1212.84 504.343C1209.8 507.214 1206.75 510.087 1203.69 512.963Z" fill="#D970D6"/>
<path d="M1323.04 568.866C1319.27 567.479 1315.51 566.091 1311.74 564.703C1337.88 551.03 1364.03 537.358 1390.19 523.686C1394.01 525.093 1397.82 526.498 1401.63 527.902C1375.42 541.558 1349.22 555.213 1323.04 568.866Z" fill="#D970D6"/>
<path d="M1390.16 581.754C1393.31 578.938 1396.46 576.118 1399.61 573.295C1410.24 574.385 1420.87 575.476 1431.51 576.568C1432.65 576.688 1433.78 576.81 1434.9 576.934C1434.25 576.396 1433.61 575.863 1432.96 575.335C1426.75 570.254 1420.53 565.171 1414.3 560.085C1417.42 557.276 1420.54 554.466 1423.66 551.657C1432.64 560.356 1441.6 569.054 1450.55 577.75C1447.89 580.115 1445.23 582.48 1442.57 584.843C1425.08 583.805 1407.61 582.775 1390.16 581.754Z" fill="#D970D6"/>
<path d="M1583.27 652.932C1574.77 644.386 1566.26 635.833 1557.73 627.273C1560.43 624.949 1563.13 622.624 1565.83 620.299C1583.22 621.301 1600.63 622.312 1618.04 623.33C1614.79 626.108 1611.54 628.887 1608.27 631.667C1598 630.619 1587.72 629.573 1577.45 628.532C1576.14 628.417 1574.85 628.303 1573.55 628.191C1574.26 628.81 1574.97 629.427 1575.67 630.043C1581.5 634.89 1587.31 639.732 1593.11 644.57C1589.84 647.355 1586.55 650.142 1583.27 652.932Z" fill="#569CD6"/>
<path d="M1702.08 708.641C1698.36 707.27 1694.64 705.896 1690.91 704.522C1718.3 691.31 1745.7 678.1 1773.12 664.892C1776.86 666.269 1780.59 667.645 1784.31 669.019C1756.89 682.225 1729.48 695.432 1702.08 708.641Z" fill="#569CD6"/>
<path d="M487.814 368.69C491.066 365.904 494.317 363.122 497.566 360.344C508.015 361.366 518.46 362.388 528.901 363.407C530.007 363.516 531.115 363.63 532.225 363.749C531.613 363.224 531 362.703 530.385 362.186C524.509 357.23 518.64 352.276 512.778 347.325C516.018 344.551 519.254 341.776 522.486 339C530.846 347.487 539.207 355.971 547.569 364.451C544.846 366.793 542.123 369.134 539.4 371.475C522.216 370.551 505.02 369.622 487.814 368.69Z" fill="#569CD6"/>
<path d="M671.987 436.573C663.842 428.156 655.697 419.74 647.552 411.323C650.216 408.985 652.88 406.646 655.543 404.308C672.333 405.087 689.101 405.858 705.847 406.621C702.668 409.433 699.489 412.246 696.309 415.058C686.424 414.152 676.526 413.246 666.616 412.339C665.365 412.243 664.117 412.148 662.873 412.054C663.539 412.657 664.209 413.261 664.882 413.866C670.437 418.613 675.996 423.361 681.558 428.111C678.369 430.928 675.179 433.749 671.987 436.573Z" fill="#B5CEA8"/>
<path d="M784.718 490.039C781.071 488.694 777.428 487.351 773.789 486.008C799.736 472.266 825.652 458.507 851.536 444.733C855.154 446.067 858.775 447.403 862.4 448.739C836.537 462.522 810.643 476.288 784.718 490.039Z" fill="#B5CEA8"/>
<path d="M849.734 502.161C852.84 499.322 855.941 496.484 859.037 493.65C869.281 494.596 879.522 495.542 889.758 496.486C890.857 496.592 891.943 496.698 893.016 496.803C892.412 496.282 891.802 495.762 891.188 495.245C885.304 490.286 879.424 485.328 873.548 480.371C876.634 477.541 879.72 474.711 882.806 471.881C891.217 480.387 899.64 488.894 908.075 497.401C905.477 499.788 902.881 502.177 900.29 504.567C883.442 503.766 866.59 502.964 849.734 502.161Z" fill="#B5CEA8"/>
<path d="M1032.95 569.692C1024.61 561.203 1016.28 552.718 1007.96 544.236C1010.51 541.858 1013.07 539.48 1015.63 537.104C1032.3 537.837 1048.97 538.574 1065.66 539.316C1062.6 542.171 1059.53 545.026 1056.46 547.878C1046.59 546.978 1036.73 546.082 1026.86 545.192C1025.62 545.101 1024.38 545.009 1023.14 544.915C1023.83 545.526 1024.51 546.135 1025.19 546.743C1030.86 551.53 1036.53 556.32 1042.21 561.113C1039.13 563.97 1036.04 566.83 1032.95 569.692Z" fill="#CE9178"/>
<path d="M1146.89 623.603C1143.2 622.242 1139.52 620.884 1135.84 619.528C1161.78 605.783 1187.73 592.038 1213.7 578.293C1217.42 579.668 1221.15 581.041 1224.87 582.413C1198.87 596.144 1172.87 609.874 1146.89 623.603Z" fill="#CE9178"/>
<path d="M1212.75 636.025C1215.9 633.199 1219.03 630.379 1222.16 627.565C1232.6 628.575 1243.05 629.592 1253.5 630.618C1254.61 630.726 1255.71 630.839 1256.81 630.955C1256.2 630.428 1255.57 629.902 1254.93 629.376C1248.89 624.368 1242.85 619.356 1236.82 614.34C1239.93 611.52 1243.05 608.701 1246.16 605.881C1254.85 614.49 1263.53 623.088 1272.2 631.674C1269.55 634.042 1266.9 636.41 1264.25 638.779C1247.07 637.854 1229.9 636.937 1212.75 636.025Z" fill="#CE9178"/>
<path d="M1399.13 704.721C1390.83 696.245 1382.51 687.765 1374.18 679.281C1376.87 676.954 1379.56 674.625 1382.25 672.295C1399.39 673.203 1416.56 674.121 1433.75 675.048C1430.5 677.836 1427.25 680.623 1424 683.409C1413.88 682.414 1403.75 681.422 1393.62 680.435C1392.34 680.328 1391.06 680.222 1389.79 680.118C1390.48 680.729 1391.17 681.341 1391.86 681.954C1397.56 686.752 1403.24 691.547 1408.92 696.34C1405.67 699.133 1402.4 701.926 1399.13 704.721Z" fill="#1F1F1F"/>
<path d="M1513.77 758.891C1510.06 757.522 1506.34 756.152 1502.63 754.783C1529.86 741.512 1557.1 728.242 1584.35 714.971C1588.08 716.349 1591.81 717.724 1595.54 719.099C1568.27 732.361 1541.01 745.625 1513.77 758.891Z" fill="#1F1F1F"/>
<path d="M1580.43 771.619C1583.77 768.866 1587.1 766.115 1590.43 763.366C1601.01 764.435 1611.57 765.5 1622.13 766.563C1623.25 766.677 1624.37 766.795 1625.49 766.916C1624.88 766.392 1624.27 765.872 1623.66 765.358C1617.78 760.401 1611.91 755.445 1606.03 750.488C1609.35 747.744 1612.67 745 1615.99 742.256C1624.36 750.747 1632.7 759.225 1641.03 767.692C1638.22 770.001 1635.41 772.31 1632.6 774.619C1615.22 773.622 1597.83 772.622 1580.43 771.619Z" fill="#1F1F1F"/>
<path d="M428.101 466.315C419.78 457.834 411.473 449.362 403.179 440.898C405.887 438.576 408.598 436.255 411.313 433.936C428.395 434.823 445.474 435.708 462.548 436.592C459.311 439.383 456.073 442.174 452.836 444.965C442.753 443.986 432.666 443.006 422.576 442.025C421.308 441.93 420.033 441.83 418.752 441.723C419.44 442.333 420.126 442.939 420.81 443.54C426.472 448.334 432.142 453.128 437.822 457.921C434.581 460.719 431.341 463.517 428.101 466.315Z" fill="#808080"/>
<path d="M543.035 520.594C539.323 519.225 535.617 517.858 531.92 516.495C558.31 502.924 584.696 489.343 611.077 475.752C614.753 477.107 618.433 478.464 622.116 479.823C595.764 493.424 569.404 507.015 543.035 520.594Z" fill="#808080"/>
<path d="M609.104 533.104C612.258 530.291 615.409 527.476 618.556 524.66C628.954 525.664 639.352 526.663 649.753 527.66C650.848 527.773 651.94 527.885 653.028 527.996C652.416 527.471 651.801 526.946 651.182 526.418C645.222 521.439 639.272 516.46 633.33 511.479C636.474 508.67 639.619 505.862 642.763 503.053C651.272 511.587 659.784 520.122 668.3 528.659C665.654 531.038 663.01 533.412 660.368 535.783C643.293 534.899 626.205 534.006 609.104 533.104Z" fill="#808080"/>
<path d="M793.88 601.209C785.545 592.723 777.216 584.242 768.892 575.768C771.483 573.403 774.07 571.036 776.654 568.668C793.385 569.426 810.113 570.182 826.836 570.937C823.738 573.779 820.643 576.622 817.551 579.467C807.673 578.564 797.791 577.659 787.906 576.753C786.652 576.664 785.399 576.572 784.148 576.476C784.836 577.086 785.525 577.693 786.216 578.297C791.871 583.088 797.527 587.877 803.184 592.661C800.083 595.511 796.981 598.36 793.88 601.209Z" fill="#4EC9B0"/>
<path d="M907.323 654.938C903.669 653.591 900.015 652.243 896.361 650.896C922.079 637.077 947.811 623.254 973.556 609.429C977.218 610.779 980.879 612.13 984.54 613.48C958.78 627.3 933.041 641.119 907.323 654.938Z" fill="#4EC9B0"/>
<path d="M972.394 667.08C975.486 664.236 978.572 661.393 981.654 658.553C991.934 659.513 1002.22 660.47 1012.5 661.423C1013.59 661.534 1014.68 661.645 1015.76 661.755C1015.14 661.228 1014.53 660.704 1013.93 660.182C1007.98 655.208 1002.04 650.236 996.105 645.265C999.184 642.432 1002.26 639.6 1005.34 636.767C1013.86 645.306 1022.38 653.838 1030.88 662.362C1028.27 664.754 1025.67 667.142 1023.06 669.527C1006.17 668.71 989.279 667.894 972.394 667.08Z" fill="#4EC9B0"/>
<path d="M1155.33 734.496C1147.19 726.079 1139.03 717.661 1130.85 709.241C1133.48 706.889 1136.1 704.537 1138.73 702.185C1155.51 702.959 1172.3 703.74 1189.12 704.53C1185.95 707.345 1182.78 710.161 1179.61 712.976C1169.69 712.059 1159.78 711.144 1149.87 710.229C1148.62 710.141 1147.37 710.048 1146.12 709.952C1146.79 710.557 1147.47 711.16 1148.15 711.761C1153.73 716.523 1159.3 721.282 1164.88 726.036C1161.7 728.856 1158.51 731.676 1155.33 734.496Z" fill="#9CDCFE"/>
<path d="M1267.54 787.783C1263.91 786.443 1260.28 785.103 1256.64 783.76C1283.36 770.303 1310.12 756.856 1336.92 743.419C1340.59 744.774 1344.27 746.131 1347.96 747.49C1321.12 760.914 1294.32 774.345 1267.54 787.783Z" fill="#9CDCFE"/>
<path d="M1333.09 800.099C1336.38 797.33 1339.68 794.564 1342.97 791.802C1353.42 792.824 1363.87 793.844 1374.33 794.862C1375.44 794.981 1376.55 795.098 1377.65 795.214C1377.05 794.693 1376.45 794.172 1375.85 793.653C1370.03 788.725 1364.2 783.791 1358.37 778.851C1361.65 776.094 1364.93 773.335 1368.21 770.575C1376.51 779.033 1384.81 787.489 1393.1 795.942C1390.31 798.267 1387.52 800.589 1384.74 802.909C1367.5 801.963 1350.28 801.026 1333.09 800.099Z" fill="#9CDCFE"/>
<path d="M1517.52 868.064C1509.48 859.688 1501.43 851.311 1493.37 842.934C1496.18 840.647 1498.97 838.359 1501.77 836.069C1518.94 836.988 1536.09 837.902 1553.24 838.81C1549.88 841.558 1546.53 844.307 1543.18 847.057C1533.08 846.071 1522.97 845.082 1512.86 844.093C1511.57 843.993 1510.3 843.891 1509.02 843.787C1509.69 844.39 1510.36 844.99 1511.04 845.588C1516.56 850.331 1522.09 855.072 1527.62 859.811C1524.26 862.563 1520.89 865.314 1517.52 868.064Z" fill="#FFD602"/>
<path d="M298.048 549.943C294.307 548.563 290.569 547.184 286.834 545.807C313.347 532.265 339.868 518.734 366.397 505.214C370.146 506.596 373.892 507.978 377.633 509.358C351.082 522.869 324.554 536.398 298.048 549.943Z" fill="#FFD602"/>
<path d="M364.841 562.72C368.02 559.907 371.198 557.098 374.374 554.293C384.928 555.346 395.476 556.401 406.02 557.458C407.13 557.577 408.245 557.694 409.365 557.808C408.729 557.283 408.097 556.755 407.471 556.225C401.395 551.203 395.323 546.179 389.257 541.152C392.431 538.355 395.604 535.557 398.778 532.759C407.462 541.358 416.15 549.958 424.841 558.559C422.166 560.927 419.497 563.292 416.832 565.655C399.509 564.679 382.178 563.701 364.841 562.72Z" fill="#FFD602"/>
<path d="M555.705 633.058C547.194 624.507 538.691 615.958 530.195 607.412C532.798 605.059 535.405 602.704 538.018 600.347C554.998 601.196 571.963 602.04 588.913 602.878C585.793 605.712 582.674 608.543 579.556 611.369C569.529 610.419 559.499 609.464 549.468 608.505C548.199 608.41 546.932 608.312 545.666 608.211C546.368 608.827 547.069 609.438 547.767 610.044C553.534 614.869 559.304 619.695 565.079 624.523C561.945 627.369 558.821 630.214 555.705 633.058Z" fill="#D970D6"/>
<path d="M674.044 688.605C670.339 687.238 666.63 685.871 662.918 684.501C688.663 670.676 714.414 656.857 740.172 643.044C743.855 644.402 747.538 645.761 751.221 647.119C725.479 660.937 699.753 674.766 674.044 688.605Z" fill="#D970D6"/>
<path d="M739.663 700.949C742.718 698.091 745.768 695.235 748.813 692.381C759.125 693.345 769.429 694.31 779.724 695.276C780.805 695.384 781.898 695.492 783.004 695.601C782.367 695.076 781.743 694.551 781.131 694.026C775.121 689.028 769.112 684.027 763.104 679.022C766.161 676.181 769.214 673.339 772.263 670.495C780.874 679.067 789.482 687.637 798.085 696.206C795.52 698.614 792.956 701.019 790.394 703.419C773.495 702.6 756.585 701.777 739.663 700.949Z" fill="#D970D6"/>
<path d="M925.485 769.428C917.318 761.003 909.132 752.571 900.929 744.133C903.473 741.759 906.022 739.383 908.577 737.004C925.125 737.694 941.681 738.387 958.244 739.082C955.16 741.93 952.081 744.775 949.007 747.618C939.221 746.757 929.444 745.895 919.675 745.032C918.443 744.951 917.212 744.867 915.983 744.779C916.656 745.384 917.331 745.986 918.007 746.584C923.584 751.338 929.158 756.092 934.727 760.844C931.645 763.709 928.564 766.57 925.485 769.428Z" fill="#569CD6"/>
<path d="M1038.89 823.155C1035.33 821.843 1031.78 820.532 1028.23 819.222C1054.12 805.45 1080.09 791.712 1106.14 778.007C1109.73 779.333 1113.33 780.659 1116.92 781.985C1090.84 795.679 1064.83 809.403 1038.89 823.155Z" fill="#569CD6"/>
<path d="M1102.71 834.837C1105.9 832.027 1109.09 829.222 1112.28 826.422C1122.45 827.332 1132.61 828.247 1142.78 829.167C1143.87 829.275 1144.95 829.38 1146.03 829.48C1145.43 828.969 1144.84 828.456 1144.26 827.942C1138.58 823.068 1132.9 818.187 1127.21 813.298C1130.39 810.505 1133.58 807.711 1136.76 804.916C1144.87 813.305 1152.97 821.687 1161.05 830.062C1158.33 832.413 1155.61 834.762 1152.91 837.109C1136.15 836.341 1119.41 835.583 1102.71 834.837Z" fill="#569CD6"/>
<path d="M1284.3 901.755C1276.62 893.508 1268.92 885.257 1261.22 877.002C1263.98 874.709 1266.75 872.413 1269.52 870.115C1286.33 870.9 1303.17 871.697 1320.04 872.509C1316.69 875.257 1313.34 878.002 1310 880.745C1300.06 879.83 1290.15 878.917 1280.25 878.006C1278.99 877.917 1277.74 877.824 1276.49 877.728C1277.13 878.323 1277.78 878.915 1278.44 879.505C1283.77 884.168 1289.09 888.83 1294.41 893.491C1291.04 896.25 1287.67 899.005 1284.3 901.755Z" fill="#B5CEA8"/>
<path d="M1397.51 955.41C1393.89 954.076 1390.28 952.742 1386.66 951.407C1414.59 938.388 1442.55 925.384 1470.55 912.396C1474.22 913.752 1477.89 915.106 1481.56 916.459C1453.51 929.425 1425.49 942.409 1397.51 955.41Z" fill="#B5CEA8"/>
<path d="M198.035 620.901C201.221 618.091 204.408 615.281 207.594 612.471C218.16 613.537 228.722 614.601 239.28 615.664C240.397 615.785 241.52 615.904 242.647 616.021C242.003 615.493 241.368 614.964 240.742 614.435C234.646 609.397 228.557 604.366 222.473 599.341C225.647 596.544 228.821 593.746 231.994 590.948C240.708 599.557 249.435 608.172 258.178 616.793C255.506 619.153 252.833 621.517 250.158 623.884C232.776 622.887 215.402 621.893 198.035 620.901Z" fill="#B5CEA8"/>
<path d="M387.781 690.827C379.066 682.2 370.365 673.578 361.679 664.962C364.282 662.61 366.893 660.256 369.513 657.901C386.683 658.821 403.838 659.734 420.979 660.643C417.851 663.474 414.731 666.304 411.621 669.134C401.477 668.141 391.327 667.141 381.171 666.136C379.89 666.029 378.609 665.925 377.325 665.826C378.038 666.437 378.753 667.054 379.47 667.675C385.361 672.546 391.253 677.417 397.144 682.287C394.018 685.136 390.897 687.982 387.781 690.827Z" fill="#CE9178"/>
<path d="M505.55 746.163C501.765 744.767 497.979 743.371 494.193 741.975C519.975 728.163 545.763 714.357 571.557 700.558C575.299 701.938 579.041 703.318 582.782 704.698C557.032 718.513 531.288 732.335 505.55 746.163Z" fill="#CE9178"/>
<path d="M572.266 758.912C575.277 756.037 578.291 753.164 581.31 750.292C591.736 751.307 602.156 752.318 612.568 753.327C613.671 753.443 614.771 753.554 615.869 753.661C615.233 753.135 614.59 752.604 613.942 752.066C607.773 747.001 601.604 741.941 595.432 736.884C598.445 734.026 601.462 731.171 604.482 728.316C613.356 736.985 622.234 745.655 631.115 754.327C628.589 756.741 626.062 759.159 623.534 761.58C606.473 760.702 589.384 759.812 572.266 758.912Z" fill="#CE9178"/>
<path d="M758.01 827.362C749.602 818.848 741.172 810.327 732.72 801.797C735.191 799.396 737.664 796.991 740.137 794.582C756.649 795.259 773.143 795.929 789.619 796.592C786.63 799.475 783.649 802.356 780.677 805.237C770.935 804.392 761.191 803.542 751.444 802.687C750.222 802.602 748.992 802.518 747.752 802.434C748.45 803.04 749.143 803.649 749.831 804.259C755.525 809.057 761.215 813.854 766.902 818.649C763.929 821.554 760.966 824.459 758.01 827.362Z" fill="#1F1F1F"/>
<path d="M868.512 880.018C865.004 878.725 861.496 877.431 857.988 876.137C882.974 862.032 908.089 847.978 933.335 833.977C936.88 835.284 940.42 836.59 943.957 837.894C918.682 851.885 893.534 865.926 868.512 880.018Z" fill="#1F1F1F"/>
<path d="M930.919 891.178C933.974 888.32 937.033 885.463 940.095 882.607C949.981 883.422 959.878 884.241 969.785 885.064C970.83 885.159 971.875 885.249 972.922 885.337C972.344 884.833 971.768 884.326 971.193 883.815C965.623 878.971 960.034 874.125 954.426 869.275C957.497 866.44 960.565 863.603 963.629 860.765C971.626 869.11 979.59 877.443 987.521 885.764C984.915 888.149 982.304 890.536 979.688 892.925C963.417 892.337 947.161 891.755 930.919 891.178Z" fill="#1F1F1F"/>
<path d="M1104.13 955.008C1096.76 946.877 1089.38 938.739 1081.97 930.595C1084.64 928.269 1087.32 925.941 1090.01 923.611C1106.27 924.193 1122.56 924.789 1138.89 925.398C1135.61 928.175 1132.35 930.952 1129.09 933.727C1119.5 932.937 1109.92 932.147 1100.35 931.36C1099.15 931.28 1097.93 931.202 1096.72 931.127C1097.35 931.709 1097.97 932.291 1098.59 932.875C1103.71 937.463 1108.83 942.049 1113.95 946.634C1110.67 949.427 1107.4 952.218 1104.13 955.008Z" fill="#808080"/>
<path d="M1209.9 1005.92C1206.43 1004.64 1202.96 1003.36 1199.49 1002.08C1226.68 988.785 1253.95 975.527 1281.3 962.302C1284.85 963.611 1288.4 964.921 1291.96 966.231C1264.52 979.427 1237.17 992.656 1209.9 1005.92Z" fill="#808080"/>
<path d="M1273.65 1017.57C1277.1 1014.86 1280.55 1012.15 1284 1009.44C1294.3 1010.4 1304.6 1011.37 1314.91 1012.34C1316 1012.45 1317.1 1012.56 1318.2 1012.67C1317.62 1012.17 1317.06 1011.66 1316.49 1011.16C1311.04 1006.36 1305.59 1001.56 1300.14 996.772C1303.58 994.071 1307.02 991.37 1310.45 988.669C1318.14 996.899 1325.82 1005.13 1333.49 1013.35C1330.56 1015.62 1327.64 1017.89 1324.7 1020.16C1307.64 1019.28 1290.62 1018.42 1273.65 1017.57Z" fill="#808080"/>
<path d="M141.04 719.529C132.369 710.918 123.738 702.322 115.147 693.741C117.796 691.397 120.448 689.059 123.102 686.725C140.323 687.663 157.558 688.606 174.808 689.555C171.639 692.363 168.469 695.174 165.297 697.99C155.09 696.965 144.885 695.945 134.683 694.931C133.409 694.827 132.124 694.722 130.826 694.617C131.546 695.231 132.257 695.846 132.96 696.462C138.822 701.322 144.695 706.186 150.579 711.054C147.402 713.884 144.222 716.709 141.04 719.529Z" fill="#4EC9B0"/>
<path d="M260.542 775.504C256.668 774.076 252.802 772.65 248.944 771.227C275.142 757.569 301.336 743.913 327.524 730.259C331.354 731.671 335.183 733.083 339.013 734.495C312.861 748.163 286.704 761.832 260.542 775.504Z" fill="#4EC9B0"/>
<path d="M328.847 788.839C331.894 785.978 334.942 783.117 337.989 780.256C348.679 781.367 359.361 782.476 370.037 783.582C371.161 783.706 372.291 783.828 373.426 783.947C372.76 783.411 372.092 782.87 371.422 782.324C365.027 777.176 358.643 772.032 352.269 766.893C355.316 764.056 358.364 761.216 361.414 758.373C370.602 767.157 379.812 775.95 389.044 784.751C386.504 787.16 383.958 789.571 381.408 791.984C363.902 790.941 346.382 789.893 328.847 788.839Z" fill="#4EC9B0"/>
<path d="M522.078 860.05C512.976 851.281 503.888 842.516 494.815 833.757C497.267 831.341 499.717 828.928 502.167 826.519C519.183 827.381 536.166 828.232 553.117 829.07C550.196 831.969 547.274 834.873 544.351 837.779C534.297 836.811 524.231 835.843 514.153 834.874C512.88 834.77 511.605 834.669 510.329 834.572C511.078 835.197 511.823 835.825 512.562 836.454C518.643 841.395 524.728 846.337 530.817 851.281C527.903 854.208 524.99 857.131 522.078 860.05Z" fill="#9CDCFE"/>
<path d="M639.793 915.367C636.102 914.006 632.408 912.643 628.71 911.279C652.833 896.856 677.057 882.473 701.382 868.132C705.014 869.472 708.646 870.811 712.279 872.151C687.997 886.508 663.835 900.913 639.793 915.367Z" fill="#9CDCFE"/>
<path d="M703.472 926.995C706.249 924.035 709.034 921.077 711.825 918.121C721.682 918.925 731.513 919.72 741.319 920.505C742.348 920.594 743.387 920.683 744.434 920.77C743.827 920.255 743.221 919.737 742.616 919.215C736.762 914.267 730.882 909.309 724.976 904.342C727.797 901.422 730.622 898.5 733.452 895.575C741.953 904.106 750.393 912.615 758.77 921.101C756.383 923.566 753.998 926.036 751.616 928.512C735.608 928.021 719.56 927.516 703.472 926.995Z" fill="#9CDCFE"/>
<path d="M874.824 990.138C867.482 982.018 860.094 973.88 852.657 965.725C855.131 963.316 857.6 960.91 860.064 958.506C875.662 958.846 891.283 959.194 906.925 959.55C903.902 962.411 900.878 965.277 897.852 968.146C888.668 967.499 879.483 966.855 870.297 966.215C869.133 966.151 867.968 966.091 866.802 966.034C867.426 966.614 868.05 967.196 868.672 967.783C873.752 972.354 878.818 976.921 883.869 981.481C880.845 984.368 877.83 987.253 874.824 990.138Z" fill="#FFD602"/>
<path d="M976.336 1039.48C973.048 1038.27 969.755 1037.05 966.459 1035.84C991.883 1021.89 1017.46 1008.01 1043.2 994.189C1046.56 995.429 1049.93 996.672 1053.31 997.917C1027.5 1011.71 1001.84 1025.56 976.336 1039.48Z" fill="#FFD602"/>
<path d="M1036.32 1049.75C1039.55 1046.95 1042.78 1044.16 1046.01 1041.36C1055.69 1042.1 1065.37 1042.84 1075.08 1043.59C1076.11 1043.68 1077.13 1043.76 1078.16 1043.84C1077.63 1043.36 1077.1 1042.87 1076.57 1042.37C1071.45 1037.69 1066.32 1033.01 1061.18 1028.33C1064.41 1025.56 1067.65 1022.79 1070.89 1020.02C1078.14 1028.09 1085.36 1036.15 1092.57 1044.2C1089.81 1046.53 1087.04 1048.86 1084.27 1051.19C1068.23 1050.69 1052.25 1050.21 1036.32 1049.75Z" fill="#FFD602"/>
<path d="M1205.23 1111.99C1198.13 1103.96 1191.05 1095.93 1183.98 1087.91C1186.85 1085.65 1189.71 1083.39 1192.57 1081.13C1209.07 1081.8 1225.63 1082.5 1242.26 1083.22C1238.79 1085.91 1235.32 1088.61 1231.84 1091.32C1222.08 1090.46 1212.34 1089.61 1202.62 1088.77C1201.4 1088.69 1200.17 1088.6 1198.95 1088.53C1199.54 1089.09 1200.14 1089.67 1200.74 1090.25C1205.71 1094.78 1210.7 1099.31 1215.7 1103.86C1212.21 1106.57 1208.72 1109.28 1205.23 1111.99Z" fill="#D970D6"/>
<path d="M11.7513 803.45C7.83422 802.006 3.91714 800.561 6.70279e-05 799.117C26.6078 785.609 53.2156 772.102 79.8234 758.594C83.6674 760.012 87.5114 761.429 91.3554 762.847C64.7841 776.368 38.2494 789.902 11.7513 803.45Z" fill="#D970D6"/>
<path d="M81.014 817.126C84.0734 814.277 87.1379 811.427 90.2074 808.574C101.065 809.747 111.916 810.918 122.759 812.086C123.908 812.211 125.06 812.341 126.214 812.476C125.529 811.924 124.847 811.378 124.166 810.836C117.647 805.643 111.139 800.453 104.641 795.267C107.734 792.44 110.823 789.615 113.906 786.792C123.262 795.638 132.655 804.499 142.085 813.372C139.515 815.77 136.945 818.168 134.376 820.566C116.599 819.424 98.8122 818.277 81.014 817.126Z" fill="#D970D6"/>
<path d="M270.405 886.933C261.025 878.061 251.659 869.194 242.308 860.333C244.812 857.935 247.31 855.54 249.803 853.147C267.257 854.171 284.705 855.193 302.145 856.212C299.159 859.087 296.174 861.967 293.193 864.852C282.854 863.779 272.507 862.707 262.151 861.636C260.841 861.518 259.53 861.404 258.218 861.294C258.989 861.927 259.755 862.562 260.516 863.2C266.794 868.213 273.077 873.228 279.363 878.245C276.378 881.137 273.392 884.033 270.405 886.933Z" fill="#569CD6"/>
<path d="M385.346 941.227C381.414 939.777 377.479 938.326 373.54 936.873C398.862 922.891 424.128 908.889 449.34 894.867C453.221 896.298 457.105 897.73 460.993 899.164C435.847 913.211 410.631 927.232 385.346 941.227Z" fill="#569CD6"/>
<path d="M454.137 954.729C457.007 951.81 459.874 948.887 462.739 945.958C473.421 947.067 484.097 948.173 494.764 949.276C495.892 949.393 497.022 949.515 498.154 949.642C497.461 949.088 496.764 948.536 496.062 947.986C489.411 942.744 482.764 937.503 476.12 932.264C478.972 929.347 481.816 926.432 484.651 923.517C494.307 932.474 503.977 941.437 513.663 950.405C511.297 952.879 508.932 955.352 506.567 957.825C489.127 956.807 471.651 955.774 454.137 954.729Z" fill="#569CD6"/>
<path d="M637.916 1022.47C629.764 1014.05 621.242 1005.49 612.352 996.8C614.489 994.267 616.626 991.739 618.761 989.214C634.542 989.621 650.166 989.97 665.633 990.261C663.012 993.271 660.397 996.287 657.788 999.31C648.706 998.7 639.557 998.07 630.342 997.42C629.171 997.353 627.995 997.289 626.814 997.227C627.534 997.841 628.249 998.458 628.959 999.076C634.667 1003.88 640.259 1008.64 645.733 1013.36C643.136 1016.39 640.531 1019.43 637.916 1022.47Z" fill="#B5CEA8"/>
<path d="M730.363 1068.46C727.191 1067.29 724.012 1066.12 720.826 1064.95C744.489 1050.35 768.203 1035.78 791.968 1021.22C795.234 1022.43 798.497 1023.63 801.757 1024.83C777.904 1039.36 754.106 1053.9 730.363 1068.46Z" fill="#B5CEA8"/>
<path d="M787.864 1077.8C790.821 1074.92 793.779 1072.03 796.739 1069.13C805.923 1069.69 815.119 1070.25 824.325 1070.81C825.306 1070.88 826.283 1070.94 827.254 1071.01C826.737 1070.52 826.215 1070.03 825.688 1069.55C820.66 1064.9 815.62 1060.26 810.57 1055.6C813.517 1052.72 816.463 1049.84 819.407 1046.97C826.593 1055.02 833.746 1063.05 840.866 1071.07C838.348 1073.49 835.829 1075.91 833.311 1078.32C818.136 1078.14 802.987 1077.97 787.864 1077.8Z" fill="#B5CEA8"/>
<path d="M941.409 1134.39C934.718 1126.51 928.02 1118.63 921.315 1110.74C923.891 1108.37 926.466 1106 929.039 1103.64C944.228 1103.83 959.454 1104.03 974.717 1104.25C971.577 1107.07 968.435 1109.89 965.293 1112.71C956.35 1112.16 947.413 1111.6 938.482 1111.06C937.355 1111.01 936.227 1110.96 935.097 1110.92C935.664 1111.48 936.229 1112.04 936.792 1112.6C941.456 1117.02 946.116 1121.44 950.772 1125.85C947.649 1128.69 944.528 1131.54 941.409 1134.39Z" fill="#CE9178"/>
<path d="M1032.16 1179.76C1028.98 1178.59 1025.8 1177.42 1022.63 1176.25C1048.18 1162.35 1074.08 1148.58 1100.34 1134.95C1103.63 1136.16 1106.93 1137.38 1110.23 1138.59C1083.83 1152.18 1057.81 1165.9 1032.16 1179.76Z" fill="#CE9178"/>
</g>
<defs>
<clipPath id="clip0_98_614">
<rect width="1667.71" height="851.726" fill="white" transform="translate(294.703) rotate(20.2433)"/>
</clipPath>
</defs>
</svg>
